<svg xmlns="http://www.w3.org/2000/svg" viewBox="0 0 1400 880" font-family="'Inter', 'SF Pro Display', 'Segoe UI', system-ui, -apple-system, sans-serif">
  <defs>
    <filter id="s" x="-4%" y="-4%" width="108%" height="116%">
      <feDropShadow dx="0" dy="1" stdDeviation="3" flood-color="#0f172a" flood-opacity="0.07"/>
    </filter>
    <filter id="sm" x="-4%" y="-4%" width="108%" height="120%">
      <feDropShadow dx="0" dy="3" stdDeviation="6" flood-color="#0f172a" flood-opacity="0.1"/>
    </filter>
    <filter id="hero" x="-6%" y="-6%" width="112%" height="128%">
      <feDropShadow dx="0" dy="4" stdDeviation="10" flood-color="#0f172a" flood-opacity="0.14"/>
    </filter>

    <linearGradient id="bg" x1="0" y1="0" x2="1" y2="1">
      <stop offset="0%" stop-color="#fafbff"/><stop offset="100%" stop-color="#f0f4ff"/>
    </linearGradient>
    <linearGradient id="g-green" x1="0" y1="0" x2="0" y2="1">
      <stop offset="0%" stop-color="#ecfdf5"/><stop offset="100%" stop-color="#d1fae5"/>
    </linearGradient>
    <linearGradient id="g-red" x1="0" y1="0" x2="0" y2="1">
      <stop offset="0%" stop-color="#fef2f2"/><stop offset="100%" stop-color="#fce7f3"/>
    </linearGradient>
    <linearGradient id="g-purple" x1="0" y1="0" x2="1" y2="1">
      <stop offset="0%" stop-color="#7c3aed"/><stop offset="100%" stop-color="#6d28d9"/>
    </linearGradient>
    <linearGradient id="g-blue" x1="0" y1="0" x2="0" y2="1">
      <stop offset="0%" stop-color="#eff6ff"/><stop offset="100%" stop-color="#dbeafe"/>
    </linearGradient>
    <linearGradient id="g-amber" x1="0" y1="0" x2="0" y2="1">
      <stop offset="0%" stop-color="#fffbeb"/><stop offset="100%" stop-color="#fef3c7"/>
    </linearGradient>
    <linearGradient id="g-slate" x1="0" y1="0" x2="0" y2="1">
      <stop offset="0%" stop-color="#f8fafc"/><stop offset="100%" stop-color="#f1f5f9"/>
    </linearGradient>
    <linearGradient id="g-glow" x1="0" y1="0" x2="1" y2="1">
      <stop offset="0%" stop-color="#a78bfa" stop-opacity="0.25"/><stop offset="100%" stop-color="#7c3aed" stop-opacity="0.08"/>
    </linearGradient>

    <marker id="a" viewBox="0 0 10 8" refX="9" refY="4" markerWidth="7" markerHeight="5.5" orient="auto-start-reverse">
      <path d="M0,1 L8,4 L0,7 Z" fill="#94a3b8"/>
    </marker>
    <marker id="a-g" viewBox="0 0 10 8" refX="9" refY="4" markerWidth="7" markerHeight="5.5" orient="auto-start-reverse">
      <path d="M0,1 L8,4 L0,7 Z" fill="#10b981"/>
    </marker>
    <marker id="a-b" viewBox="0 0 10 8" refX="9" refY="4" markerWidth="7" markerHeight="5.5" orient="auto-start-reverse">
      <path d="M0,1 L8,4 L0,7 Z" fill="#3b82f6"/>
    </marker>
    <marker id="a-p" viewBox="0 0 10 8" refX="9" refY="4" markerWidth="7" markerHeight="5.5" orient="auto-start-reverse">
      <path d="M0,1 L8,4 L0,7 Z" fill="#7c3aed"/>
    </marker>
    <marker id="a-am" viewBox="0 0 10 8" refX="9" refY="4" markerWidth="7" markerHeight="5.5" orient="auto-start-reverse">
      <path d="M0,1 L8,4 L0,7 Z" fill="#f59e0b"/>
    </marker>
    <marker id="a-sl" viewBox="0 0 10 8" refX="9" refY="4" markerWidth="7" markerHeight="5.5" orient="auto-start-reverse">
      <path d="M0,1 L8,4 L0,7 Z" fill="#6366f1"/>
    </marker>

    <pattern id="dots" width="24" height="24" patternUnits="userSpaceOnUse">
      <circle cx="2" cy="2" r="0.4" fill="#cbd5e1" opacity="0.3"/>
    </pattern>
  </defs>

  <!-- Background -->
  <rect width="1400" height="880" fill="url(#bg)"/>
  <rect width="1400" height="880" fill="url(#dots)"/>

  <!-- Title -->
  <text x="700" y="36" text-anchor="middle" font-size="21" font-weight="800" fill="#0f172a" letter-spacing="-0.5">AI Product Photo Detector</text>
  <text x="700" y="54" text-anchor="middle" font-size="11" fill="#64748b" letter-spacing="0.2">End-to-end MLOps pipeline — from data ingestion to production monitoring</text>

  <!-- ================================================================ -->
  <!--  1. DATA INGESTION                                               -->
  <!-- ================================================================ -->
  <rect x="24" y="74" width="252" height="310" rx="14" fill="url(#g-green)" stroke="#a7f3d0" stroke-width="1" filter="url(#s)"/>
  <rect x="24" y="74" width="252" height="30" rx="14" fill="#10b981" opacity="0.12"/>
  <circle cx="40" cy="89" r="4.5" fill="#10b981"/>
  <text x="52" y="93" font-size="9.5" font-weight="700" fill="#065f46" letter-spacing="1.2">DATA INGESTION</text>

  <!-- CIFAKE -->
  <g filter="url(#s)">
    <rect x="36" y="114" width="228" height="52" rx="9" fill="#fff"/>
    <rect x="36" y="114" width="4" height="52" rx="2" fill="#10b981"/>
  </g>
  <text x="52" y="133" font-size="11" font-weight="700" fill="#0f172a">CIFAKE Dataset</text>
  <text x="52" y="147" font-size="8.5" fill="#64748b">140K images from HuggingFace — Real (CIFAR-10) + AI (Stable Diffusion)</text>
  <text x="52" y="159" font-size="7.5" fill="#94a3b8" font-family="'JetBrains Mono', monospace">5K sampled · 2 classes · 224×224px</text>

  <!-- Processing -->
  <g filter="url(#s)">
    <rect x="36" y="176" width="228" height="52" rx="9" fill="#fff"/>
    <rect x="36" y="176" width="4" height="52" rx="2" fill="#10b981"/>
  </g>
  <text x="52" y="195" font-size="11" font-weight="700" fill="#0f172a">Data Processing</text>
  <text x="52" y="209" font-size="8.5" fill="#64748b">Augmentation pipeline · Train 70% / Val 15% / Test 15%</text>
  <text x="52" y="221" font-size="7.5" fill="#94a3b8" font-family="'JetBrains Mono', monospace">RandomCrop · Flip · ColorJitter · Erasing</text>

  <!-- Validation -->
  <g filter="url(#s)">
    <rect x="36" y="238" width="228" height="52" rx="9" fill="#fff"/>
    <rect x="36" y="238" width="4" height="52" rx="2" fill="#10b981"/>
  </g>
  <text x="52" y="257" font-size="11" font-weight="700" fill="#0f172a">Validation</text>
  <text x="52" y="271" font-size="8.5" fill="#64748b">Image integrity, class balance, resolution stats</text>
  <text x="52" y="283" font-size="7.5" fill="#94a3b8" font-family="'JetBrains Mono', monospace">src/data/validate.py → JSON report</text>

  <!-- DVC -->
  <g filter="url(#s)">
    <rect x="36" y="300" width="228" height="42" rx="9" fill="#fff"/>
    <rect x="36" y="300" width="4" height="42" rx="2" fill="#10b981"/>
  </g>
  <text x="52" y="319" font-size="11" font-weight="700" fill="#0f172a">DVC Pipeline</text>
  <text x="52" y="333" font-size="8.5" fill="#64748b">download → validate → train (versioned, reproducible)</text>

  <!-- ================================================================ -->
  <!--  Arrow: Data → Training                                          -->
  <!-- ================================================================ -->
  <path d="M276 230 C302 230, 302 230, 326 230" stroke="#10b981" stroke-width="2" fill="none" marker-end="url(#a-g)" stroke-linecap="round"/>
  <rect x="284" y="220" width="32" height="15" rx="4" fill="#fff" stroke="#d1fae5" stroke-width="0.8"/>
  <text x="300" y="231" text-anchor="middle" font-size="7" fill="#059669" font-weight="700">data</text>

  <!-- ================================================================ -->
  <!--  2. MODEL TRAINING                                               -->
  <!-- ================================================================ -->
  <rect x="330" y="74" width="252" height="310" rx="14" fill="url(#g-red)" stroke="#fecaca" stroke-width="1" filter="url(#s)"/>
  <rect x="330" y="74" width="252" height="30" rx="14" fill="#ef4444" opacity="0.12"/>
  <circle cx="346" cy="89" r="4.5" fill="#ef4444"/>
  <text x="358" y="93" font-size="9.5" font-weight="700" fill="#991b1b" letter-spacing="1.2">MODEL TRAINING</text>

  <!-- Local -->
  <g filter="url(#s)">
    <rect x="342" y="114" width="228" height="44" rx="9" fill="#fff"/>
    <rect x="342" y="114" width="4" height="44" rx="2" fill="#ef4444"/>
  </g>
  <text x="358" y="133" font-size="11" font-weight="700" fill="#0f172a">Local Training</text>
  <text x="358" y="147" font-size="8.5" fill="#64748b">Docker-based, CPU/GPU, development iterations</text>

  <!-- Colab -->
  <g filter="url(#s)">
    <rect x="342" y="168" width="228" height="44" rx="9" fill="#fff"/>
    <rect x="342" y="168" width="4" height="44" rx="2" fill="#ef4444"/>
  </g>
  <text x="358" y="187" font-size="11" font-weight="700" fill="#0f172a">Google Colab</text>
  <text x="358" y="201" font-size="8.5" fill="#64748b">Free T4 GPU, interactive notebook, ~20min training</text>

  <!-- Vertex AI -->
  <g filter="url(#s)">
    <rect x="342" y="222" width="228" height="44" rx="9" fill="#fff"/>
    <rect x="342" y="222" width="4" height="44" rx="2" fill="#ef4444"/>
  </g>
  <text x="358" y="241" font-size="11" font-weight="700" fill="#0f172a">Vertex AI Pipeline</text>
  <text x="358" y="255" font-size="8.5" fill="#64748b">Production T4 GPU, 6-step Kubeflow DAG, auto-deploy</text>

  <!-- MLflow + GCS row -->
  <g filter="url(#s)">
    <rect x="342" y="276" width="110" height="42" rx="9" fill="#fff"/>
    <rect x="342" y="276" width="4" height="42" rx="2" fill="#ef4444"/>
  </g>
  <text x="358" y="295" font-size="10" font-weight="700" fill="#0f172a">MLflow</text>
  <text x="358" y="308" font-size="8" fill="#64748b">Experiment tracking</text>

  <g filter="url(#s)">
    <rect x="460" y="276" width="110" height="42" rx="9" fill="#fff"/>
    <rect x="460" y="276" width="4" height="42" rx="2" fill="#ef4444"/>
  </g>
  <text x="476" y="295" font-size="10" font-weight="700" fill="#0f172a">GCS Registry</text>
  <text x="476" y="308" font-size="8" fill="#64748b">Model artifacts</text>

  <!-- Training summary line -->
  <text x="342" y="338" font-size="7.5" fill="#94a3b8" font-family="'JetBrains Mono', monospace">EfficientNet-B0 · AdamW · BCELoss · CosineAnnealing · EarlyStopping(5)</text>
  <text x="342" y="352" font-size="7.5" fill="#94a3b8" font-family="'JetBrains Mono', monospace">lr=0.001 · dropout=0.3 · batch=64 · seed=42</text>

  <!-- ================================================================ -->
  <!--  Arrow: Training → Model                                         -->
  <!-- ================================================================ -->
  <path d="M582 230 C610 230, 610 230, 636 230" stroke="#7c3aed" stroke-width="2.2" fill="none" marker-end="url(#a-p)" stroke-linecap="round"/>
  <rect x="590" y="219" width="40" height="15" rx="4" fill="#fff" stroke="#ddd6fe" stroke-width="0.8"/>
  <text x="610" y="230" text-anchor="middle" font-size="7" fill="#7c3aed" font-weight="700">model</text>

  <!-- ================================================================ -->
  <!--  3. TRAINED MODEL (hero)                                         -->
  <!-- ================================================================ -->
  <rect x="640" y="160" width="210" height="142" rx="16" fill="url(#g-glow)" stroke="#c4b5fd" stroke-width="1"/>
  <g filter="url(#hero)">
    <rect x="650" y="170" width="190" height="122" rx="13" fill="url(#g-purple)"/>
  </g>
  <rect x="654" y="174" width="182" height="114" rx="11" fill="none" stroke="rgba(255,255,255,0.12)" stroke-width="1"/>

  <text x="745" y="198" text-anchor="middle" font-size="9" font-weight="600" fill="#e9d5ff" letter-spacing="1.5">TRAINED MODEL</text>
  <text x="745" y="224" text-anchor="middle" font-size="20" font-weight="800" fill="#fff" letter-spacing="-0.5">EfficientNet-B0</text>
  <text x="745" y="243" text-anchor="middle" font-size="9" fill="#c4b5fd">Binary classifier — Real vs AI-generated</text>
  <rect x="698" y="252" width="94" height="20" rx="10" fill="rgba(255,255,255,0.16)" stroke="rgba(255,255,255,0.22)" stroke-width="0.7"/>
  <text x="745" y="266" text-anchor="middle" font-size="9" font-weight="800" fill="#fff">95%+ Accuracy</text>
  <text x="745" y="284" text-anchor="middle" font-size="7" fill="#c4b5fd" font-family="'JetBrains Mono', monospace">224×224 → 1280-d → 512 → sigmoid</text>

  <!-- ================================================================ -->
  <!--  Arrow: Model → API                                              -->
  <!-- ================================================================ -->
  <path d="M745 302 L745 396" stroke="#3b82f6" stroke-width="2" fill="none" marker-end="url(#a-b)" stroke-linecap="round"/>
  <rect x="729" y="342" width="32" height="15" rx="4" fill="#fff" stroke="#bfdbfe" stroke-width="0.8"/>
  <text x="745" y="353" text-anchor="middle" font-size="7" fill="#3b82f6" font-weight="700">serve</text>

  <!-- ================================================================ -->
  <!--  4. INFERENCE API                                                -->
  <!-- ================================================================ -->
  <rect x="594" y="400" width="302" height="310" rx="14" fill="url(#g-blue)" stroke="#bfdbfe" stroke-width="1" filter="url(#s)"/>
  <rect x="594" y="400" width="302" height="30" rx="14" fill="#3b82f6" opacity="0.12"/>
  <circle cx="610" cy="415" r="4.5" fill="#3b82f6"/>
  <text x="622" y="419" font-size="9.5" font-weight="700" fill="#1e40af" letter-spacing="1.2">INFERENCE API</text>
  <text x="878" y="419" text-anchor="end" font-size="8" fill="#60a5fa" font-weight="600">FastAPI · Cloud Run</text>

  <!-- Middleware -->
  <g filter="url(#s)">
    <rect x="606" y="438" width="278" height="38" rx="8" fill="#fff"/>
    <rect x="606" y="438" width="4" height="38" rx="2" fill="#3b82f6"/>
  </g>
  <text x="622" y="455" font-size="9" font-weight="700" fill="#1e40af">Middleware Chain</text>
  <text x="622" y="468" font-size="7.5" fill="#64748b">GZip → CORS → Auth (X-API-Key, SHA-256) → Rate Limit (slowapi) → Security Headers → Observability</text>

  <!-- Predictor -->
  <g filter="url(#s)">
    <rect x="606" y="484" width="136" height="60" rx="9" fill="#fff"/>
    <rect x="606" y="484" width="4" height="60" rx="2" fill="#3b82f6"/>
  </g>
  <text x="622" y="502" font-size="10.5" font-weight="700" fill="#0f172a">Predictor</text>
  <text x="622" y="515" font-size="8" fill="#64748b">Single and batch (up to 10)</text>
  <text x="622" y="528" font-size="8" fill="#64748b">Real-time classification</text>
  <text x="622" y="539" font-size="7" fill="#94a3b8" font-family="'JetBrains Mono', monospace">POST /predict · /predict/batch</text>

  <!-- Grad-CAM -->
  <g filter="url(#s)">
    <rect x="748" y="484" width="136" height="60" rx="9" fill="#fff"/>
    <rect x="748" y="484" width="4" height="60" rx="2" fill="#3b82f6"/>
  </g>
  <text x="764" y="502" font-size="10.5" font-weight="700" fill="#0f172a">Grad-CAM Explainer</text>
  <text x="764" y="515" font-size="8" fill="#64748b">Heatmap explanations</text>
  <text x="764" y="528" font-size="8" fill="#64748b">Target: backbone.bn2</text>
  <text x="764" y="539" font-size="7" fill="#94a3b8" font-family="'JetBrains Mono', monospace">POST /predict/explain</text>

  <!-- Streamlit -->
  <g filter="url(#s)">
    <rect x="606" y="552" width="278" height="44" rx="9" fill="#fff"/>
    <rect x="606" y="552" width="4" height="44" rx="2" fill="#3b82f6"/>
  </g>
  <text x="622" y="571" font-size="10.5" font-weight="700" fill="#0f172a">Streamlit Web UI</text>
  <text x="622" y="585" font-size="8" fill="#64748b">Upload → Preview → Predict → Heatmap overlay → History (last 10)</text>

  <!-- Health Probes -->
  <g filter="url(#s)">
    <rect x="606" y="604" width="278" height="38" rx="9" fill="#fff"/>
    <rect x="606" y="604" width="4" height="38" rx="2" fill="#3b82f6"/>
  </g>
  <text x="622" y="621" font-size="9" font-weight="700" fill="#1e40af">Health Probes</text>
  <text x="622" y="634" font-size="7.5" fill="#64748b">/healthz · /readyz · /startup · /metrics · /drift — K8s-compatible, graceful shutdown</text>

  <!-- Shadow -->
  <g filter="url(#s)">
    <rect x="606" y="650" width="278" height="38" rx="9" fill="#fff"/>
    <rect x="606" y="650" width="4" height="38" rx="2" fill="#3b82f6"/>
  </g>
  <text x="622" y="667" font-size="9" font-weight="700" fill="#1e40af">Shadow A/B Testing</text>
  <text x="622" y="680" font-size="7.5" fill="#64748b">Parallel model comparison, agreement tracking, safe canary deployments</text>

  <!-- ================================================================ -->
  <!--  Arrow: API → Deployment                                         -->
  <!-- ================================================================ -->
  <path d="M896 500 C920 500, 940 500, 940 360 L940 160 C940 145, 950 138, 968 138" stroke="#6366f1" stroke-width="1.8" fill="none" marker-end="url(#a-sl)" stroke-linecap="round"/>
  <rect x="926" y="300" width="42" height="15" rx="4" fill="#fff" stroke="#e0e7ff" stroke-width="0.8"/>
  <text x="947" y="311" text-anchor="middle" font-size="7" fill="#6366f1" font-weight="700">deploy</text>

  <!-- Arrow: API → Monitoring -->
  <path d="M896 630 C926 630, 950 630, 968 630" stroke="#f59e0b" stroke-width="1.8" fill="none" marker-end="url(#a-am)" stroke-linecap="round"/>
  <rect x="920" y="620" width="44" height="15" rx="4" fill="#fff" stroke="#fde68a" stroke-width="0.8"/>
  <text x="942" y="631" text-anchor="middle" font-size="7" fill="#f59e0b" font-weight="700">metrics</text>

  <!-- ================================================================ -->
  <!--  5. CLOUD DEPLOYMENT                                             -->
  <!-- ================================================================ -->
  <rect x="972" y="74" width="404" height="230" rx="14" fill="url(#g-slate)" stroke="#e2e8f0" stroke-width="1" filter="url(#s)"/>
  <rect x="972" y="74" width="404" height="30" rx="14" fill="#6366f1" opacity="0.08"/>
  <circle cx="988" cy="89" r="4.5" fill="#6366f1"/>
  <text x="1000" y="93" font-size="9.5" font-weight="700" fill="#312e81" letter-spacing="1.2">CLOUD DEPLOYMENT</text>
  <text x="1358" y="93" text-anchor="end" font-size="8" fill="#818cf8" font-weight="600">Google Cloud Platform</text>

  <!-- Docker -->
  <g filter="url(#s)">
    <rect x="984" y="114" width="188" height="52" rx="9" fill="#fff"/>
    <rect x="984" y="114" width="4" height="52" rx="2" fill="#6366f1"/>
  </g>
  <text x="1000" y="133" font-size="10.5" font-weight="700" fill="#0f172a">Docker</text>
  <text x="1000" y="147" font-size="8" fill="#64748b">Multi-stage optimized builds, minimal images</text>
  <text x="1000" y="159" font-size="7.5" fill="#94a3b8" font-family="'JetBrains Mono', monospace">CPU-only inference · CUDA 12.1 training</text>

  <!-- Cloud Run -->
  <g filter="url(#s)">
    <rect x="1180" y="114" width="184" height="52" rx="9" fill="#fff"/>
    <rect x="1180" y="114" width="4" height="52" rx="2" fill="#6366f1"/>
  </g>
  <text x="1196" y="133" font-size="10.5" font-weight="700" fill="#0f172a">Cloud Run</text>
  <text x="1196" y="147" font-size="8" fill="#64748b">Serverless, auto-scaling 0→10 instances</text>
  <text x="1196" y="159" font-size="7.5" fill="#94a3b8" font-family="'JetBrains Mono', monospace">europe-west1 · 1Gi · port 8080</text>

  <!-- Terraform -->
  <g filter="url(#s)">
    <rect x="984" y="176" width="188" height="52" rx="9" fill="#fff"/>
    <rect x="984" y="176" width="4" height="52" rx="2" fill="#6366f1"/>
  </g>
  <text x="1000" y="195" font-size="10.5" font-weight="700" fill="#0f172a">Terraform IaC</text>
  <text x="1000" y="209" font-size="8" fill="#64748b">5 modules, dev/prod environments</text>
  <text x="1000" y="221" font-size="7.5" fill="#94a3b8" font-family="'JetBrains Mono', monospace">cloud-run · storage · iam · registry · monitoring</text>

  <!-- GCS + AR -->
  <g filter="url(#s)">
    <rect x="1180" y="176" width="184" height="52" rx="9" fill="#fff"/>
    <rect x="1180" y="176" width="4" height="52" rx="2" fill="#6366f1"/>
  </g>
  <text x="1196" y="195" font-size="10.5" font-weight="700" fill="#0f172a">GCS + Artifact Registry</text>
  <text x="1196" y="209" font-size="8" fill="#64748b">Model storage, Docker images, DVC remote</text>
  <text x="1196" y="221" font-size="7.5" fill="#94a3b8" font-family="'JetBrains Mono', monospace">Versioned buckets · lifecycle cleanup</text>

  <!-- Deploy internal arrows -->
  <line x1="1172" y1="140" x2="1180" y2="140" stroke="#94a3b8" stroke-width="1.2" marker-end="url(#a)"/>
  <line x1="1078" y1="166" x2="1078" y2="176" stroke="#94a3b8" stroke-width="1.2" marker-end="url(#a)"/>

  <!-- Deploy summary -->
  <text x="984" y="248" font-size="7.5" fill="#94a3b8">Budget alerts · IAM service accounts · Uptime checks · Auto-provisioned · Remote state on GCS</text>

  <!-- ================================================================ -->
  <!--  6. MONITORING                                                   -->
  <!-- ================================================================ -->
  <rect x="972" y="510" width="404" height="286" rx="14" fill="url(#g-amber)" stroke="#fde68a" stroke-width="1" filter="url(#s)"/>
  <rect x="972" y="510" width="404" height="30" rx="14" fill="#f59e0b" opacity="0.12"/>
  <circle cx="988" cy="525" r="4.5" fill="#f59e0b"/>
  <text x="1000" y="529" font-size="9.5" font-weight="700" fill="#92400e" letter-spacing="1.2">MONITORING &amp; OBSERVABILITY</text>

  <!-- Prometheus -->
  <g filter="url(#s)">
    <rect x="984" y="550" width="188" height="58" rx="9" fill="#fff"/>
    <rect x="984" y="550" width="4" height="58" rx="2" fill="#f59e0b"/>
  </g>
  <text x="1000" y="569" font-size="10.5" font-weight="700" fill="#0f172a">Prometheus</text>
  <text x="1000" y="583" font-size="8" fill="#64748b">18 custom metrics, 10s scrape interval</text>
  <text x="1000" y="596" font-size="7.5" fill="#94a3b8" font-family="'JetBrains Mono', monospace">aidetect_* · latency · throughput · errors</text>

  <!-- Grafana -->
  <g filter="url(#s)">
    <rect x="1180" y="550" width="184" height="58" rx="9" fill="#fff"/>
    <rect x="1180" y="550" width="4" height="58" rx="2" fill="#f59e0b"/>
  </g>
  <text x="1196" y="569" font-size="10.5" font-weight="700" fill="#0f172a">Grafana Dashboards</text>
  <text x="1196" y="583" font-size="8" fill="#64748b">4 dashboards, 65+ panels, auto-provisioned</text>
  <text x="1196" y="596" font-size="7.5" fill="#94a3b8" font-family="'JetBrains Mono', monospace">Overview · API · Model · Infrastructure</text>

  <!-- Drift -->
  <g filter="url(#s)">
    <rect x="984" y="618" width="188" height="58" rx="9" fill="#fff"/>
    <rect x="984" y="618" width="4" height="58" rx="2" fill="#f59e0b"/>
  </g>
  <text x="1000" y="637" font-size="10.5" font-weight="700" fill="#0f172a">Drift Detection</text>
  <text x="1000" y="651" font-size="8" fill="#64748b">Sliding window (1000), statistical comparison</text>
  <text x="1000" y="664" font-size="7.5" fill="#94a3b8" font-family="'JetBrains Mono', monospace">prob drift · confidence · class ratio</text>

  <!-- Alerting -->
  <g filter="url(#s)">
    <rect x="1180" y="618" width="184" height="58" rx="9" fill="#fff"/>
    <rect x="1180" y="618" width="4" height="58" rx="2" fill="#f59e0b"/>
  </g>
  <text x="1196" y="637" font-size="10.5" font-weight="700" fill="#0f172a">Alerting Rules</text>
  <text x="1196" y="651" font-size="8" fill="#64748b">13 rules across 3 groups with runbook links</text>
  <text x="1196" y="664" font-size="7.5" fill="#94a3b8" font-family="'JetBrains Mono', monospace">API · Model · Infrastructure alerts</text>

  <!-- Monitoring internal arrows -->
  <line x1="1172" y1="579" x2="1180" y2="579" stroke="#94a3b8" stroke-width="1.2" marker-end="url(#a)"/>
  <line x1="1172" y1="647" x2="1180" y2="647" stroke="#94a3b8" stroke-width="1.2" marker-end="url(#a)"/>

  <!-- Monitoring summary -->
  <text x="984" y="698" font-size="7.5" fill="#94a3b8">Warning threshold: 0.15 · Critical: 0.30 · Teams: backend, ml-engineering, infrastructure</text>

  <!-- ================================================================ -->
  <!--  7. CI/CD PIPELINE                                               -->
  <!-- ================================================================ -->
  <rect x="24" y="400" width="556" height="100" rx="14" fill="url(#g-slate)" stroke="#e2e8f0" stroke-width="1" filter="url(#s)"/>
  <rect x="24" y="400" width="556" height="30" rx="14" fill="#475569" opacity="0.07"/>
  <circle cx="40" cy="415" r="4.5" fill="#475569"/>
  <text x="52" y="419" font-size="9.5" font-weight="700" fill="#1e293b" letter-spacing="1.2">CI/CD PIPELINE</text>
  <text x="562" y="419" text-anchor="end" font-size="8" fill="#64748b" font-weight="600">GitHub Actions · 5 Workflows</text>

  <!-- Pipeline steps -->
  <g filter="url(#s)">
    <rect x="36" y="438" width="80" height="34" rx="7" fill="#fff"/>
  </g>
  <text x="76" y="455" text-anchor="middle" font-size="9" font-weight="700" fill="#475569">Lint</text>
  <text x="76" y="466" text-anchor="middle" font-size="7" fill="#94a3b8">ruff · mypy</text>

  <path d="M116 455 L128 455" stroke="#94a3b8" stroke-width="1.4" marker-end="url(#a)"/>

  <g filter="url(#s)">
    <rect x="132" y="438" width="80" height="34" rx="7" fill="#fff"/>
  </g>
  <text x="172" y="455" text-anchor="middle" font-size="9" font-weight="700" fill="#475569">Test</text>
  <text x="172" y="466" text-anchor="middle" font-size="7" fill="#94a3b8">pytest · coverage</text>

  <path d="M212 455 L224 455" stroke="#94a3b8" stroke-width="1.4" marker-end="url(#a)"/>

  <g filter="url(#s)">
    <rect x="228" y="438" width="80" height="34" rx="7" fill="#fff"/>
  </g>
  <text x="268" y="455" text-anchor="middle" font-size="9" font-weight="700" fill="#475569">Build</text>
  <text x="268" y="466" text-anchor="middle" font-size="7" fill="#94a3b8">Docker · push</text>

  <path d="M308 455 L320 455" stroke="#94a3b8" stroke-width="1.4" marker-end="url(#a)"/>

  <g filter="url(#s)">
    <rect x="324" y="438" width="80" height="34" rx="7" fill="#fff"/>
  </g>
  <text x="364" y="455" text-anchor="middle" font-size="9" font-weight="700" fill="#475569">Deploy</text>
  <text x="364" y="466" text-anchor="middle" font-size="7" fill="#94a3b8">Cloud Run</text>

  <path d="M404 455 L416 455" stroke="#94a3b8" stroke-width="1.4" marker-end="url(#a)"/>

  <g filter="url(#s)">
    <rect x="420" y="438" width="80" height="34" rx="7" fill="#fff"/>
  </g>
  <text x="460" y="455" text-anchor="middle" font-size="9" font-weight="700" fill="#10b981">Smoke Test</text>
  <text x="460" y="466" text-anchor="middle" font-size="7" fill="#94a3b8">/health · /predict</text>

  <!-- CI/CD summary -->
  <text x="36" y="490" font-size="7.5" fill="#94a3b8">Quality gates: accuracy ≥ 85%, F1 ≥ 80% · Auto-rollback on failure · CodeQL + Trivy security scans · PR preview comments</text>

  <!-- ================================================================ -->
  <!--  8. USER FLOW                                                    -->
  <!-- ================================================================ -->
  <rect x="24" y="516" width="556" height="100" rx="14" fill="#fff" stroke="#e2e8f0" stroke-width="1" filter="url(#s)"/>
  <rect x="24" y="516" width="556" height="28" rx="14" fill="#8b5cf6" opacity="0.06"/>
  <circle cx="40" cy="530" r="4.5" fill="#8b5cf6"/>
  <text x="52" y="534" font-size="9.5" font-weight="700" fill="#5b21b6" letter-spacing="1.2">USER FLOW</text>

  <!-- Flow steps -->
  <g filter="url(#s)">
    <rect x="36" y="550" width="76" height="36" rx="7" fill="#f5f3ff" stroke="#ddd6fe" stroke-width="0.8"/>
  </g>
  <text x="74" y="573" text-anchor="middle" font-size="9" font-weight="700" fill="#5b21b6">Upload</text>

  <path d="M112 568 L124 568" stroke="#8b5cf6" stroke-width="1.4" marker-end="url(#a-p)"/>

  <g filter="url(#s)">
    <rect x="128" y="550" width="76" height="36" rx="7" fill="#f5f3ff" stroke="#ddd6fe" stroke-width="0.8"/>
  </g>
  <text x="166" y="573" text-anchor="middle" font-size="9" font-weight="700" fill="#5b21b6">Preview</text>

  <path d="M204 568 L216 568" stroke="#8b5cf6" stroke-width="1.4" marker-end="url(#a-p)"/>

  <g filter="url(#s)">
    <rect x="220" y="550" width="76" height="36" rx="7" fill="#f5f3ff" stroke="#ddd6fe" stroke-width="0.8"/>
  </g>
  <text x="258" y="573" text-anchor="middle" font-size="9" font-weight="700" fill="#5b21b6">Predict</text>

  <path d="M296 568 L308 568" stroke="#8b5cf6" stroke-width="1.4" marker-end="url(#a-p)"/>

  <g filter="url(#s)">
    <rect x="312" y="550" width="76" height="36" rx="7" fill="#f5f3ff" stroke="#ddd6fe" stroke-width="0.8"/>
  </g>
  <text x="350" y="573" text-anchor="middle" font-size="9" font-weight="700" fill="#5b21b6">Heatmap</text>

  <path d="M388 568 L400 568" stroke="#8b5cf6" stroke-width="1.4" marker-end="url(#a-p)"/>

  <g filter="url(#s)">
    <rect x="404" y="550" width="76" height="36" rx="7" fill="#10b981" stroke="#059669" stroke-width="0.8"/>
  </g>
  <text x="442" y="573" text-anchor="middle" font-size="9" font-weight="700" fill="#fff">Result</text>

  <!-- User flow description -->
  <text x="36" y="602" font-size="7.5" fill="#94a3b8" font-family="'JetBrains Mono', monospace">JPG/PNG/WebP ≤20MB → Compress ≤4.5MB → Resize(224) → Normalize(ImageNet) → EfficientNet-B0 → Sigmoid → {real, ai_generated}</text>

  <!-- ================================================================ -->
  <!--  9. DOCKER COMPOSE                                               -->
  <!-- ================================================================ -->
  <rect x="24" y="632" width="556" height="48" rx="14" fill="#fff" stroke="#e2e8f0" stroke-width="1" filter="url(#s)"/>
  <text x="42" y="654" font-size="9" font-weight="700" fill="#1e293b" letter-spacing="0.5">DOCKER COMPOSE</text>

  <rect x="172" y="642" width="60" height="20" rx="6" fill="#3b82f6"/>
  <text x="202" y="656" text-anchor="middle" font-size="7.5" font-weight="700" fill="#fff">API :8080</text>
  <rect x="238" y="642" width="48" height="20" rx="6" fill="#ef4444"/>
  <text x="262" y="656" text-anchor="middle" font-size="7.5" font-weight="700" fill="#fff">UI :8501</text>
  <rect x="292" y="642" width="68" height="20" rx="6" fill="#f97316"/>
  <text x="326" y="656" text-anchor="middle" font-size="7.5" font-weight="700" fill="#fff">MLflow :5000</text>
  <rect x="366" y="642" width="82" height="20" rx="6" fill="#eab308"/>
  <text x="407" y="656" text-anchor="middle" font-size="7.5" font-weight="700" fill="#fff">Prometheus :9090</text>
  <rect x="454" y="642" width="70" height="20" rx="6" fill="#84cc16"/>
  <text x="489" y="656" text-anchor="middle" font-size="7.5" font-weight="700" fill="#fff">Grafana :3000</text>

  <text x="42" y="674" font-size="7" fill="#94a3b8">dev (hot-reload, debug) · prod (gunicorn 4 workers, resource limits) · detector-network bridge</text>

  <!-- ================================================================ -->
  <!--  Dotted connections: CI/CD ↔ sections                            -->
  <!-- ================================================================ -->
  <path d="M520 400 L970 310" stroke="#475569" stroke-width="0.8" fill="none" stroke-dasharray="5,4" opacity="0.2"/>
  <path d="M154 400 L154 384 L464 384 L464 384" stroke="#475569" stroke-width="0.8" fill="none" stroke-dasharray="5,4" opacity="0.2"/>

  <!-- ================================================================ -->
  <!--  TECH STACK FOOTER                                               -->
  <!-- ================================================================ -->
  <line x1="24" y1="810" x2="1376" y2="810" stroke="#e2e8f0" stroke-width="0.7"/>
  <text x="24" y="830" font-size="8" font-weight="700" fill="#94a3b8" letter-spacing="1.5">TECH STACK</text>

  <rect x="100" y="820" width="52" height="18" rx="9" fill="#3776AB"/>
  <text x="126" y="833" text-anchor="middle" font-size="7.5" font-weight="700" fill="#fff">Python</text>

  <rect x="158" y="820" width="54" height="18" rx="9" fill="#EE4C2C"/>
  <text x="185" y="833" text-anchor="middle" font-size="7.5" font-weight="700" fill="#fff">PyTorch</text>

  <rect x="218" y="820" width="52" height="18" rx="9" fill="#009688"/>
  <text x="244" y="833" text-anchor="middle" font-size="7.5" font-weight="700" fill="#fff">FastAPI</text>

  <rect x="276" y="820" width="50" height="18" rx="9" fill="#2496ED"/>
  <text x="301" y="833" text-anchor="middle" font-size="7.5" font-weight="700" fill="#fff">Docker</text>

  <rect x="332" y="820" width="62" height="18" rx="9" fill="#7B42BC"/>
  <text x="363" y="833" text-anchor="middle" font-size="7.5" font-weight="700" fill="#fff">Terraform</text>

  <rect x="400" y="820" width="36" height="18" rx="9" fill="#4285F4"/>
  <text x="418" y="833" text-anchor="middle" font-size="7.5" font-weight="700" fill="#fff">GCP</text>

  <rect x="442" y="820" width="72" height="18" rx="9" fill="#E6522C"/>
  <text x="478" y="833" text-anchor="middle" font-size="7.5" font-weight="700" fill="#fff">Prometheus</text>

  <rect x="520" y="820" width="52" height="18" rx="9" fill="#F46800"/>
  <text x="546" y="833" text-anchor="middle" font-size="7.5" font-weight="700" fill="#fff">Grafana</text>

  <rect x="578" y="820" width="36" height="18" rx="9" fill="#945DD6"/>
  <text x="596" y="833" text-anchor="middle" font-size="7.5" font-weight="700" fill="#fff">DVC</text>

  <rect x="620" y="820" width="48" height="18" rx="9" fill="#0194E2"/>
  <text x="644" y="833" text-anchor="middle" font-size="7.5" font-weight="700" fill="#fff">MLflow</text>

  <rect x="674" y="820" width="82" height="18" rx="9" fill="#24292F"/>
  <text x="715" y="833" text-anchor="middle" font-size="7.5" font-weight="700" fill="#fff">GitHub Actions</text>

  <rect x="762" y="820" width="68" height="18" rx="9" fill="#6d28d9"/>
  <text x="796" y="833" text-anchor="middle" font-size="7.5" font-weight="700" fill="#fff">EfficientNet</text>

  <rect x="836" y="820" width="56" height="18" rx="9" fill="#FF4B4B"/>
  <text x="864" y="833" text-anchor="middle" font-size="7.5" font-weight="700" fill="#fff">Streamlit</text>

  <rect x="898" y="820" width="56" height="18" rx="9" fill="#4285F4"/>
  <text x="926" y="833" text-anchor="middle" font-size="7.5" font-weight="700" fill="#fff">Vertex AI</text>

  <rect x="960" y="820" width="54" height="18" rx="9" fill="#10b981"/>
  <text x="987" y="833" text-anchor="middle" font-size="7.5" font-weight="700" fill="#fff">Grad-CAM</text>

  <rect x="1020" y="820" width="50" height="18" rx="9" fill="#2563EB"/>
  <text x="1045" y="833" text-anchor="middle" font-size="7.5" font-weight="700" fill="#fff">Pydantic</text>

  <rect x="1076" y="820" width="56" height="18" rx="9" fill="#764ABC"/>
  <text x="1104" y="833" text-anchor="middle" font-size="7.5" font-weight="700" fill="#fff">structlog</text>

  <rect x="1138" y="820" width="40" height="18" rx="9" fill="#475569"/>
  <text x="1158" y="833" text-anchor="middle" font-size="7.5" font-weight="700" fill="#fff">Ruff</text>

  <rect x="1184" y="820" width="44" height="18" rx="9" fill="#3178C6"/>
  <text x="1206" y="833" text-anchor="middle" font-size="7.5" font-weight="700" fill="#fff">MyPy</text>

  <rect x="1234" y="820" width="46" height="18" rx="9" fill="#009485"/>
  <text x="1257" y="833" text-anchor="middle" font-size="7.5" font-weight="700" fill="#fff">pytest</text>

  <!-- Footer -->
  <text x="700" y="866" text-anchor="middle" font-size="9" fill="#94a3b8">Nolan Cacheux · github.com/nolancacheux · Production-grade MLOps · MIT License</text>

</svg>